
<svg width="198" height="53" viewBox="0 0 198 53" fill="none" xmlns="http://www.w3.org/2000/svg">
<path fill-rule="evenodd" clip-rule="evenodd" d="M32.593 7.39737L61.5293 30.0246C62.9114 31.156 63.1705 33.1576 62.134 34.6371C61.5293 35.4203 60.5792 35.8555 59.6291 35.8555C58.938 35.8555 58.247 35.5944 57.6424 35.1593L51.3368 30.1987C51.4232 30.8949 51.4232 31.5911 51.4232 32.2873C51.4232 43.688 42.1809 53 30.8655 53C19.55 53 10.3077 43.688 10.3077 32.2873V30.6338L5.12505 34.7241C3.74302 35.7685 1.66997 35.5074 0.633439 34.1149C-0.403087 32.7225 -0.143955 30.6338 1.23808 29.5895L10.2213 22.5402V3.22003C10.2213 1.47947 11.6897 0 13.4173 0C15.1448 0 16.6132 1.47947 16.6132 3.22003V10.8785V17.4926V25.5862V30.2857V32.2003C16.6132 40.0328 23.0051 46.4729 30.7791 46.4729C38.553 46.4729 44.9449 40.1199 44.9449 32.2003C44.9449 28.197 43.3038 24.2808 40.2806 21.5829L32.5066 15.491C31.7292 14.7947 30.5199 14.7947 29.6562 15.491L25.8556 18.624C23.7825 20.2775 20.7593 18.798 20.7593 16.1002C20.7593 15.1429 21.1912 14.1855 21.9686 13.5764L29.7425 7.39737C30.5199 6.70115 31.7292 6.70115 32.593 7.39737ZM29.6574 25.9429C26.8933 26.378 24.7339 28.5537 24.302 31.3386H28.3617C29.0528 31.3386 29.6574 30.7294 29.6574 30.0332V25.9429ZM37.1721 31.4257C36.7403 28.6409 34.5808 26.4652 31.8168 26.03V30.1203C31.8168 30.8166 32.4214 31.4257 33.1124 31.4257H37.1721ZM29.571 38.997C26.8069 38.5619 24.6475 36.3862 24.2156 33.6013H28.2754C28.9664 33.6013 29.571 34.2105 29.571 34.9067V38.997ZM31.8168 38.997C34.5808 38.5619 36.7403 36.3862 37.1721 33.6013H33.1124C32.4214 33.6013 31.8168 34.2105 31.8168 34.9067V38.997Z" fill="url(#paint0_linear_11958_29660)"/>
<path d="M76.0625 32.9871V13.5781H81.0791V25.6413H81.146C81.8149 24.5631 82.7513 23.7543 83.9553 23.0804C85.1593 22.4739 86.4971 22.1369 88.0355 22.1369C90.7779 22.1369 93.119 23.0804 95.1926 25.0348C97.2661 26.9892 98.2694 29.6849 98.2694 33.1219C98.2694 36.2893 97.1992 38.9176 95.1257 41.0068C93.0521 43.0959 90.3766 44.1068 87.0991 44.1068C83.8215 44.1068 81.146 43.0959 79.0725 41.0742C77.0658 38.985 76.0625 36.2893 76.0625 32.9871ZM82.7513 37.7045C83.8884 38.8502 85.36 39.4567 87.166 39.4567C88.9719 39.4567 90.4435 38.8502 91.5806 37.7045C92.7177 36.5589 93.2528 35.0088 93.2528 33.1893C93.2528 31.3023 92.7177 29.8196 91.5806 28.674C90.4435 27.5283 88.9719 26.9218 87.166 26.9218C85.36 26.9218 83.8884 27.5283 82.7513 28.674C81.6142 29.8196 81.0791 31.3697 81.0791 33.1893C81.0791 35.0088 81.6142 36.4915 82.7513 37.7045Z" fill="#383838"/>
<path d="M121.68 33.3199V43.5635H117.131V39.6548H117.064C116.462 41.0026 115.526 42.0809 114.255 42.8896C112.984 43.6983 111.446 44.1027 109.707 44.1027C106.964 44.1027 104.623 43.1592 102.55 41.2048C100.476 39.2504 99.4727 36.5547 99.4727 33.1177C99.4727 29.9503 100.543 27.322 102.616 25.2329C104.69 23.1437 107.365 22.1328 110.643 22.1328C113.921 22.1328 116.596 23.1437 118.67 25.1655C120.743 27.1872 121.68 29.9503 121.68 33.3199ZM106.228 37.7004C107.365 38.8461 108.837 39.4526 110.643 39.4526C112.449 39.4526 113.921 38.8461 115.058 37.7004C116.195 36.5548 116.73 35.0047 116.73 33.1851C116.73 31.2982 116.195 29.8155 115.058 28.6699C113.921 27.5242 112.449 26.9177 110.643 26.9177C108.837 26.9177 107.365 27.5242 106.228 28.6699C105.091 29.8155 104.556 31.3655 104.556 33.1851C104.489 35.0047 105.091 36.4874 106.228 37.7004Z" fill="#383838"/>
<path d="M140.678 28.6728H135.728C135.661 27.9989 135.327 27.5271 134.791 27.1228C134.189 26.7184 133.454 26.5162 132.517 26.5162C131.447 26.5162 130.644 26.7184 130.042 27.1228C129.44 27.5271 129.173 28.1336 129.173 28.8076C129.173 29.3467 129.44 29.7511 130.042 30.088C130.644 30.425 131.38 30.6271 132.25 30.7619C133.119 30.8967 134.123 31.0315 135.126 31.2337C136.129 31.3685 137.133 31.638 138.002 31.975C138.872 32.312 139.607 32.9185 140.209 33.862C140.811 34.7381 141.079 35.8837 141.079 37.299C141.079 39.3207 140.276 40.9382 138.671 42.2186C137.066 43.4991 134.992 44.173 132.383 44.173C129.775 44.173 127.701 43.5665 126.096 42.286C124.491 41.0055 123.688 39.3881 123.621 37.4338H128.638C128.705 38.9838 129.909 39.7251 132.25 39.7251C134.725 39.7251 135.995 38.9164 135.995 37.299C135.995 36.7598 135.728 36.2881 135.126 36.0185C134.524 35.749 133.788 35.4794 132.919 35.3446C132.049 35.2098 131.046 35.075 130.042 34.9402C129.039 34.8055 128.036 34.5359 127.166 34.1989C126.297 33.862 125.561 33.2554 124.959 32.3793C124.357 31.5032 124.089 30.3576 124.089 29.0097C124.089 26.988 124.825 25.3706 126.364 24.0901C127.902 22.8097 129.842 22.2031 132.383 22.2031C134.858 22.2031 136.798 22.8097 138.337 24.0901C139.875 25.2358 140.678 26.7858 140.678 28.6728Z" fill="#383838"/>
<path d="M146.43 20.1796C145.493 20.1796 144.691 19.8427 144.089 19.2362C143.42 18.5622 143.152 17.8209 143.152 16.8774C143.152 15.9339 143.487 15.1252 144.089 14.4513C144.758 13.7774 145.493 13.5078 146.43 13.5078C147.366 13.5078 148.169 13.8448 148.771 14.4513C149.373 15.1252 149.707 15.9339 149.707 16.8774C149.707 17.8209 149.373 18.6296 148.771 19.2362C148.169 19.8427 147.366 20.1796 146.43 20.1796ZM148.905 43.5647H143.888V22.6732H148.905V43.5647Z" fill="#383838"/>
<path d="M167.967 42.9569V40.5308H167.9C166.562 42.7548 164.556 43.9004 161.813 43.9004C159.204 43.9004 156.997 43.0243 155.191 41.2047C153.385 39.4525 152.516 36.8242 152.516 33.3198V22.6719H157.532V33.2525C157.532 35.2068 158 36.6895 158.937 37.6329C159.873 38.6438 161.144 39.1156 162.75 39.1156C164.355 39.1156 165.626 38.5764 166.562 37.5656C167.499 36.5547 167.967 35.072 167.967 33.1851V22.6719H172.983V42.8222C172.983 46.2592 172.047 48.8201 170.107 50.5049C168.234 52.1897 165.693 52.9984 162.616 52.9984C160.074 52.9984 157.934 52.3918 156.128 51.1788C154.322 49.9657 153.185 48.2135 152.583 45.7874H157.599C158.402 47.6744 160.074 48.6179 162.616 48.6179C166.161 48.6853 167.967 46.7983 167.967 42.9569Z" fill="#383838"/>
<path d="M194.857 25.2329C196.931 27.322 198.001 29.9503 198.001 33.1177C198.001 36.2852 196.931 38.9135 194.857 41.0026C192.784 43.0918 190.108 44.1027 186.831 44.1027C183.553 44.1027 180.877 43.0918 178.804 41.0026C176.73 38.9135 175.66 36.2852 175.66 33.1177C175.66 29.9503 176.73 27.322 178.804 25.2329C180.877 23.1437 183.553 22.1328 186.831 22.1328C190.108 22.1328 192.784 23.1437 194.857 25.2329ZM182.349 37.7004C183.486 38.8461 184.958 39.4526 186.764 39.4526C188.57 39.4526 190.041 38.8461 191.178 37.7004C192.315 36.5548 192.85 35.0047 192.85 33.1851C192.85 31.2982 192.315 29.8155 191.178 28.6699C190.041 27.5242 188.57 26.9177 186.764 26.9177C184.958 26.9177 183.486 27.5242 182.349 28.6699C181.212 29.8155 180.677 31.3655 180.677 33.1851C180.677 35.0047 181.212 36.4874 182.349 37.7004Z" fill="#383838"/>
<defs>
<linearGradient id="paint0_linear_11958_29660" x1="31.3914" y1="0" x2="31.3914" y2="52.997" gradientUnits="userSpaceOnUse">
<stop stop-color="#F29024"/>
<stop offset="1" stop-color="#E06F2A"/>
</linearGradient>
</defs>
</svg>
