<svg width="1148" height="510" viewBox="0 0 1148 510" fill="none" xmlns="http://www.w3.org/2000/svg">
<rect width="1148" height="510" fill="white"/>
<path d="M210.292 360.202C241.422 360.202 267.437 353.99 285.293 341.786C263.075 359.387 234.644 369.928 204.047 369.928C186.442 369.928 169.936 366.414 154.779 360.171L210.292 360.202Z" fill="#0047B0"/>
<path d="M298.816 329.61C307.759 319.037 312.624 305.514 312.341 289.262C312.341 250.829 284.726 225.102 247.884 221.839C270.636 219.141 292.289 201.54 292.289 168.221C292.289 151.969 287.142 139.513 277.947 129.787C312.592 153.349 335.343 193.132 335.343 238.342C335.657 273.826 321.567 305.765 298.816 329.61Z" fill="#0047B0"/>
<path d="M139.873 352.892C99.7994 330.146 73 287.383 73 238.376C73 196.147 92.7701 158.78 123.649 134.684V341.504C123.649 341.504 176.997 331.746 178.346 299.556C178.346 297.391 178.346 291.179 178.346 291.179V121.946H188.639C216.537 121.946 234.958 136.567 234.958 172.836C234.958 209.387 213.305 222.375 190.553 222.375V225.889C222.782 225.889 251.464 242.392 250.115 284.622C249.016 329.079 184.026 346.398 139.873 352.892Z" fill="#0047B0"/>
<path d="M287.459 98.952H321.319V132.805H287.459V98.952Z" fill="#FF3F00"/>
<path d="M321.037 80H337.292V96.2519H321.037V80Z" fill="#FF3F00"/>
<path d="M327.533 98.952H337.293V108.709H327.533V98.952Z" fill="#FF3F00"/>
<path d="M308.577 80H318.336V89.7574H308.577V80Z" fill="#FF3F00"/>
<path d="M395.784 248.383V165.806H439.122C454.812 165.806 462.94 175.814 462.94 186.921C462.94 197.211 456.444 204.239 448.599 205.871C457.26 207.22 464.572 215.879 464.572 226.17C464.572 238.625 456.193 248.383 440.471 248.383H395.784ZM445.053 189.901C445.053 184.756 441.256 180.96 435.293 180.96H413.358V198.843H435.293C441.256 198.843 445.053 195.329 445.053 189.901ZM446.684 223.754C446.684 218.609 442.887 213.997 436.109 213.997H413.358V233.229H436.109C442.605 233.229 446.684 229.715 446.684 223.754Z" fill="#0047B0"/>
<path d="M524.386 248.383L508.131 219.142H495.139V248.383H477.534V165.806H516.258C533.581 165.806 543.874 177.163 543.874 192.348C543.874 206.969 534.679 214.812 525.735 216.977L544.407 248.383C544.689 248.383 524.386 248.383 524.386 248.383ZM526.3 192.631C526.3 185.603 520.871 181.524 513.842 181.524H495.421V203.737H513.842C520.871 203.706 526.3 199.376 526.3 192.631Z" fill="#0047B0"/>
<path d="M553.382 207.259C553.382 182.348 571.521 164.496 596.437 164.496C621.354 164.496 639.774 182.38 639.774 207.259C639.774 232.139 621.636 250.023 596.437 250.023C571.772 250.023 553.382 232.139 553.382 207.259ZM621.605 207.259C621.605 191.823 611.594 180.183 596.437 180.183C581.28 180.183 571.521 191.823 571.521 207.259C571.521 222.696 581.28 234.335 596.437 234.335C611.845 234.304 621.605 222.664 621.605 207.259Z" fill="#0047B0"/>
<path d="M705.015 248.383L699.869 234.296H664.408L659.262 248.383H639.209L671.155 165.806H693.09L725.036 248.383H705.015ZM682.264 183.407L669.272 218.86H695.005L682.264 183.407Z" fill="#0047B0"/>
<path d="M732.628 248.383V165.806H765.107C791.091 165.806 808.978 182.309 808.978 207.22C808.978 232.131 791.091 248.383 765.107 248.383H732.628ZM791.122 207.251C791.122 192.631 782.179 181.273 765.139 181.273H750.233V232.978H765.139C781.645 232.947 791.122 221.307 791.122 207.251Z" fill="#0047B0"/>
<path d="M882.378 248.383L867.754 191.533L853.413 248.383H834.741L811.174 165.806H830.944L845.568 225.354L861.258 165.806H875.066L890.757 225.354L905.098 165.806H924.868L901.301 248.383H882.378Z" fill="#0047B0"/>
<path d="M984.465 248.383L979.318 234.296H943.858L938.711 248.383H918.659L950.605 165.806H972.54L1004.49 248.383H984.465ZM961.714 183.407L948.722 218.86H974.454L961.714 183.407Z" fill="#0047B0"/>
<path d="M1026.95 214.563L995.005 165.838H1015.06L1035.64 199.126L1055.95 165.838H1076L1044.31 214.563V248.415H1026.95V214.563Z" fill="#0047B0"/>
<path d="M398.95 278.719H412.475V342.346H398.95V278.719Z" fill="#00C3FF"/>
<path d="M464.544 342.315L434.23 300.901V342.315H420.704V278.719H434.512L464.042 318.502V278.719H477.567V342.346H464.544V342.315Z" fill="#00C3FF"/>
<path d="M486.476 278.719H531.413V290.641H500.001V304.164H530.88V316.086H500.001V342.346H486.476V278.719Z" fill="#00C3FF"/>
<path d="M533.863 310.382C533.863 291.149 547.954 277.627 566.908 277.627C586.144 277.627 600.203 291.432 600.203 310.382C600.203 329.614 586.113 343.136 566.908 343.136C547.954 343.419 533.863 329.614 533.863 310.382ZM586.395 310.382C586.395 298.459 578.801 289.549 567.159 289.549C555.516 289.549 547.922 298.491 547.922 310.382C547.922 322.304 555.516 331.214 567.159 331.214C578.801 331.214 586.395 322.304 586.395 310.382Z" fill="#00C3FF"/>
<path d="M601.552 333.127L608.864 322.836C613.477 327.448 620.224 331.496 629.168 331.496C636.479 331.496 640.277 327.982 640.277 324.468C640.277 313.11 603.718 320.954 603.718 297.109C603.718 286.536 612.912 277.877 627.818 277.877C637.829 277.877 646.239 280.858 652.452 286.819L644.858 296.827C639.712 291.964 632.933 289.799 626.437 289.799C620.757 289.799 617.494 292.497 617.494 296.294C617.494 306.302 654.053 299.557 654.053 323.37C654.053 335.009 645.674 343.669 628.603 343.669C616.458 343.418 607.515 339.339 601.552 333.127Z" fill="#00C3FF"/>
<path d="M676.019 342.315V316.337L651.636 278.719H667.076L682.766 304.164L698.457 278.719H713.896L689.513 316.337V342.315H676.019Z" fill="#00C3FF"/>
<path d="M709.598 333.127L716.909 322.836C721.522 327.448 728.269 331.496 737.213 331.496C744.525 331.496 748.322 327.982 748.322 324.468C748.322 313.11 711.763 320.954 711.763 297.109C711.763 286.536 720.958 277.877 735.864 277.877C745.874 277.877 754.284 280.858 760.498 286.819L752.903 296.827C747.757 291.964 740.979 289.799 734.483 289.799C728.803 289.799 725.539 292.497 725.539 296.294C725.539 306.302 762.098 299.557 762.098 323.37C762.098 335.009 753.719 343.669 736.648 343.669C724.504 343.418 715.56 339.339 709.598 333.127Z" fill="#00C3FF"/>
<path d="M416.742 430.461C409.732 430.461 403.792 428.032 399.277 423.72L403.554 418.315C407.297 421.777 411.633 423.963 416.98 423.963C422.029 423.963 424.643 421.412 424.643 418.436C424.643 414.975 421.732 413.821 415.198 412.242C406.762 410.238 400.881 407.747 400.881 399.913C400.881 392.625 406.94 387.281 415.554 387.281C422.029 387.281 426.901 389.528 431 393.111L426.96 398.698C423.396 395.54 419.297 393.779 415.257 393.779C411.158 393.779 408.366 396.33 408.366 399.245C408.366 402.646 411.396 403.861 417.871 405.379C426.366 407.322 432.069 410.116 432.069 417.708C432.069 425.178 426.485 430.461 416.742 430.461Z" fill="#0047B0"/>
<path d="M440.801 393.658C438.484 393.658 436.642 391.653 436.642 389.406C436.642 387.159 438.484 385.216 440.801 385.216C443.058 385.216 444.9 387.159 444.9 389.406C444.9 391.653 443.058 393.658 440.801 393.658ZM437.117 429.793V398.395H444.365V429.793H437.117Z" fill="#0047B0"/>
<path d="M467.643 397.666C474.356 397.666 479.049 402.707 479.049 409.812V429.793H472.039V411.27C472.039 407.019 469.365 403.982 465.563 403.982C461.761 403.982 458.613 406.594 458.138 409.934V429.793H450.89V398.395H458.138V402.585C460.039 399.67 463.603 397.666 467.643 397.666Z" fill="#0047B0"/>
<path d="M500.224 430.522C491.372 430.522 483.828 422.991 483.828 414.064C483.828 405.136 491.372 397.666 500.343 397.666C504.977 397.666 509.076 399.67 511.987 402.767L507.115 407.14C505.452 405.257 502.897 403.982 500.283 403.982C495.234 403.982 491.016 408.598 491.016 414.064C491.016 419.59 495.234 424.206 500.283 424.206C502.957 424.206 505.571 422.931 507.293 420.926L512.165 425.238C509.194 428.457 505.095 430.522 500.224 430.522Z" fill="#0047B0"/>
<path d="M530.694 423.963C533.545 423.963 536.931 422.627 538.654 420.805L543.228 425.664C540.555 428.579 535.209 430.522 530.753 430.522C521.961 430.522 514.713 423.659 514.713 414.003C514.713 404.589 521.604 397.666 530.337 397.666C539.842 397.666 545.367 405.014 545.367 416.614H522.198C523.09 420.926 526.298 423.963 530.694 423.963ZM530.634 404.225C526.595 404.225 523.327 406.836 522.258 410.966H538.417C537.585 407.019 534.971 404.225 530.634 404.225Z" fill="#0047B0"/>
<path d="M564.196 429.793V423.599L579.226 411.331C584.395 407.079 586.236 403.921 586.236 400.52C586.236 396.573 582.969 394.143 579.286 394.143C575.008 394.143 571.919 396.39 568.949 400.034L564.137 395.48C567.998 390.317 572.929 387.341 579.523 387.341C587.603 387.341 593.781 392.625 593.781 400.338C593.781 405.865 591.286 410.298 584.276 415.825L575.721 422.87H594.197V429.793H564.196Z" fill="#0047B0"/>
<path d="M616.684 430.522C606.169 430.522 598.744 421.594 598.744 408.901C598.744 396.269 606.169 387.341 616.684 387.341C627.14 387.341 634.506 396.269 634.506 408.901C634.506 421.594 627.14 430.522 616.684 430.522ZM616.684 423.599C622.684 423.599 626.962 417.525 626.962 408.901C626.962 400.277 622.684 394.265 616.684 394.265C610.625 394.265 606.348 400.277 606.348 408.901C606.348 417.525 610.625 423.599 616.684 423.599Z" fill="#0047B0"/>
<path d="M656.854 430.522C646.339 430.522 638.913 421.594 638.913 408.901C638.913 396.269 646.339 387.341 656.854 387.341C667.309 387.341 674.676 396.269 674.676 408.901C674.676 421.594 667.309 430.522 656.854 430.522ZM656.854 423.599C662.854 423.599 667.131 417.525 667.131 408.901C667.131 400.277 662.854 394.265 656.854 394.265C650.794 394.265 646.517 400.277 646.517 408.901C646.517 417.525 650.794 423.599 656.854 423.599Z" fill="#0047B0"/>
<path d="M694.528 430.522C685.676 430.522 678.666 426.089 678.666 418.679C678.666 413.639 682.23 409.995 686.983 408.233C682.765 406.411 679.735 403.314 679.735 398.577C679.735 391.41 686.864 387.341 694.528 387.341C702.429 387.341 709.379 391.532 709.379 398.577C709.379 403.435 706.231 406.533 702.132 408.233C706.944 410.116 710.449 413.76 710.449 418.679C710.449 426.149 703.32 430.522 694.528 430.522ZM694.528 405.5C698.033 405.318 702.072 403.193 702.072 399.549C702.072 396.269 698.805 393.779 694.528 393.779C690.25 393.779 687.042 396.269 687.042 399.549C687.042 403.253 691.142 405.318 694.528 405.5ZM694.528 424.024C699.28 424.024 702.963 421.594 702.963 417.951C702.963 414.064 698.33 411.756 694.528 411.574C690.785 411.756 686.092 414.064 686.092 417.951C686.092 421.594 689.716 424.024 694.528 424.024Z" fill="#0047B0"/>
</svg>
