<svg width="2081" height="1690" viewBox="0 0 2081 1690" fill="none" xmlns="http://www.w3.org/2000/svg">
<path d="M243.285 1593.3L225.582 1642.18H207.179L263.381 1485.76H285.796L344.428 1642.18H324.774L306.592 1593.3H243.285ZM301.697 1577.33C286.091 1534.75 277.699 1512.77 274.387 1501.21H274.166C270.485 1514.1 260.916 1540.89 248.401 1577.33H301.697ZM476.046 1629.12C501.59 1629.12 511.601 1616.86 511.601 1601.47C511.601 1585.24 503.872 1575.89 471.667 1568.05C435.854 1559.26 422.825 1547.19 422.825 1525.1C422.825 1503.02 439.351 1483.58 473.912 1483.58C510.386 1483.58 525.44 1504.97 527.575 1525.07H508.804C505.786 1510.34 496.474 1498.79 473.176 1498.79C453.153 1498.79 442.001 1507.88 442.001 1523.48C442.001 1539.09 451.239 1544.9 479.065 1551.68C523.489 1562.72 530.998 1580.02 530.998 1599.74C530.998 1624.37 512.816 1644.17 475.126 1644.17C435.854 1644.17 419.623 1622.31 416.494 1599.12H435.229C439.608 1618.44 452.712 1629.19 476.231 1629.19M543.401 1528.78H563.424V1494.81H580.759V1528.78H606.303V1543.5H580.759V1611.89C580.759 1623.37 583.446 1629.45 593.899 1629.45C597.388 1629.52 600.873 1629.18 604.278 1628.42V1641.85C599.049 1643.46 593.586 1644.17 588.121 1643.95C571.337 1643.95 563.424 1635.3 563.424 1616.68V1543.5H543.401V1528.78ZM636.079 1588.44C636.263 1613.18 648.703 1630.07 668.652 1630.07C687.497 1630.07 693.717 1620.06 697.471 1611.67H714.954C710.427 1626.39 698.281 1645.05 668.1 1645.05C632.766 1645.05 618.522 1615.9 618.522 1586.79C618.522 1553.44 635.269 1526.28 669.388 1526.28C705.495 1526.28 717.236 1555.72 717.236 1579.24C717.236 1582.63 717.236 1585.61 716.978 1588.63L636.079 1588.44ZM699.569 1575.67C699.348 1556.02 689.19 1540.3 669.057 1540.3C648.188 1540.3 638.876 1554.84 636.778 1575.67H699.569ZM760.446 1627.42V1687.05H743.037V1556.53C743.037 1547.26 743.037 1537.54 742.816 1528.78H759.71C760.152 1532.72 760.336 1539.57 760.336 1547.19C766.703 1535.15 778.481 1525.95 798.172 1525.95C824.525 1525.95 843.481 1548.03 843.481 1582.41C843.481 1622.9 821.618 1644.72 794.161 1644.72C775.389 1644.72 765.599 1636.73 760.336 1627.28M825.519 1583.11C825.519 1558.45 814.073 1541.11 793.903 1541.11C769.316 1541.11 759.489 1556.61 759.489 1585.06C759.489 1612.85 767.439 1629.78 792.357 1629.78C813.888 1629.78 825.482 1611.96 825.482 1583.11M1064.24 1542.62L1024.71 1601.51L1066.08 1642H1042.09L1014.92 1615.24C1000.61 1634.31 987.502 1644.24 964.719 1644.24C936.489 1644.24 921.325 1623.37 921.325 1603.35C921.325 1584.95 930.159 1571.7 955.702 1556.9C943.961 1545.31 936.416 1534.82 936.416 1520.46C936.416 1501.03 949.887 1483.33 974.694 1483.33C997.035 1483.33 1011.5 1499.37 1011.5 1518.81C1011.5 1534.05 1002.92 1544.13 980.436 1557.79L1014.11 1590.91L1045.51 1542.47L1064.24 1542.62ZM965.382 1566.62C943.961 1579.5 939.618 1589.62 939.618 1601.77C939.606 1608.81 942.354 1615.58 947.273 1620.63C952.193 1625.67 958.891 1628.58 965.934 1628.75C980.656 1628.75 990.3 1624 1004.51 1605.04L965.382 1566.62ZM994.827 1519.18C994.827 1508.13 987.944 1497.28 974.363 1497.28C961.701 1497.28 953.052 1505.41 953.052 1519.95C953.052 1529.33 959.567 1537.8 970.645 1548.55C986.693 1538.83 994.827 1531.87 994.827 1519.1" fill="#395389"/>
<path d="M1153.87 1485.76H1212.39C1244.6 1485.76 1260.24 1502.72 1260.24 1524.62C1260.24 1543.03 1249.56 1554.8 1237.31 1558.74C1245.5 1561.09 1252.69 1566.06 1257.78 1572.88C1262.88 1579.71 1265.59 1588.02 1265.5 1596.54C1265.5 1626.54 1242.72 1642.18 1213.72 1642.18H1153.87V1485.76ZM1171.87 1551.42H1208.42C1232.27 1551.42 1241.54 1542.18 1241.54 1526.13C1241.54 1511.85 1231.42 1501.25 1212.1 1501.25H1171.87V1551.42ZM1212.02 1626.69C1231.9 1626.69 1246.55 1617.15 1246.55 1596.69C1246.55 1578.91 1235.14 1566.91 1207.35 1566.91H1171.87V1626.69H1212.02ZM1304.04 1588.45C1304.04 1613.18 1316.66 1630.07 1336.57 1630.07C1355.42 1630.07 1361.64 1620.06 1365.39 1611.67H1382.91C1378.35 1626.39 1366.24 1645.05 1336.02 1645.05C1300.69 1645.05 1286.44 1615.9 1286.44 1586.79C1286.44 1553.44 1303.19 1526.28 1337.31 1526.28C1373.45 1526.28 1385.16 1555.72 1385.16 1579.24C1385.16 1582.63 1385.16 1585.61 1384.86 1588.63L1304.04 1588.45ZM1367.53 1575.67C1367.27 1556.02 1357.11 1540.3 1336.98 1540.3C1316.11 1540.3 1306.83 1554.84 1304.7 1575.67H1367.53ZM1450.75 1626.87H1450.97C1454.9 1613.77 1463.22 1587.71 1482.69 1528.78H1500.32L1459.03 1647.78C1447.36 1680.9 1438.93 1689.22 1416.48 1689.22C1412.57 1689.22 1408.66 1688.97 1404.78 1688.48V1672.99C1407.95 1673.39 1411.15 1673.6 1414.34 1673.61C1429.25 1673.61 1434.66 1666.84 1441.8 1646.71L1399.11 1528.93H1417.91C1437.46 1586.09 1447.36 1615.31 1450.75 1627.02M1616.59 1585.43C1616.59 1617.78 1598.19 1645.02 1563.78 1645.02C1531.79 1645.02 1512.25 1619.88 1512.25 1585.76C1512.25 1552.63 1531.13 1526.24 1564.95 1526.24C1596.09 1526.24 1616.48 1549.84 1616.48 1585.43M1530.14 1585.65C1530.14 1611.08 1543.13 1630.22 1564.51 1630.22C1585.9 1630.22 1598.52 1612.19 1598.52 1585.68C1598.52 1559.92 1586.38 1541.08 1564.03 1541.08C1541.69 1541.08 1530.14 1559.48 1530.14 1585.65ZM1642.73 1557.53C1642.73 1547.63 1642.73 1537.8 1642.5 1528.93H1659.51C1660.02 1532.35 1660.32 1545.05 1660.21 1548.36C1664.85 1538.13 1674.12 1526.28 1696.43 1526.28C1717.41 1526.28 1734.37 1538.83 1734.37 1569.31V1642.37H1717.04V1571.44C1717.04 1553.48 1709.9 1541.48 1691.9 1541.48C1669.01 1541.48 1660.21 1559.44 1660.21 1582.74V1642.18H1642.87L1642.73 1557.53ZM1861.06 1610.12C1861.06 1620.83 1861.06 1631.29 1861.28 1642.33H1844.61C1844.02 1636.72 1843.73 1631.08 1843.72 1625.44C1838.09 1637.8 1826.28 1645.02 1807.4 1645.02C1777.95 1645.02 1760.28 1621.28 1760.28 1586.86C1760.28 1552.45 1779.61 1526.24 1810.82 1526.24C1831.58 1526.24 1840.56 1534.78 1843.72 1541.41V1477.25H1861.06V1610.12ZM1778.36 1586.31C1778.36 1614.69 1792.23 1630.04 1810.49 1630.04C1837.91 1630.04 1844.39 1610.16 1844.39 1583.7C1844.39 1557.23 1838.64 1541.22 1812.18 1541.22C1791.5 1541.22 1778.36 1557.64 1778.36 1586.31Z" fill="#F7C844"/>
<path fill-rule="evenodd" clip-rule="evenodd" d="M1123.61 247.862C1135.9 265.1 1145.34 284.2 1151.58 304.433H1151.25C1201.97 456.81 1164.61 765.096 876.639 854.645C837.648 867.049 797.048 873.671 756.136 874.3H755.511C515.941 877.023 345.529 656.555 345.529 460.196C345.529 267.848 476.153 106.122 652.748 60.2988L655.251 59.6363C658.048 58.9002 661.14 58.0905 663.937 57.4648C665.293 57.1614 666.684 56.8754 668.093 56.5857C669.589 56.2778 671.106 55.9658 672.623 55.6245C672.623 55.6245 676.746 54.4467 684.107 52.9008C685.211 52.6064 686.279 52.3855 687.383 52.1647C689.333 51.723 691.063 51.3918 693.014 51.0605C720.582 45.5028 770.969 38.1416 811.861 47.0119C848.667 54.8147 878.111 75.5733 878.111 121.691C878.111 190.415 878.428 214.172 878.703 234.875C878.916 250.861 879.105 265.026 879.105 296.667C879.221 310.528 879.483 324.223 879.742 337.695C881.868 448.533 883.706 544.355 801.04 594.795C817.474 602.06 835.244 605.812 853.212 605.812C871.18 605.812 888.95 602.06 905.384 594.795C922.46 587.102 938.329 576.973 952.496 564.725C958.753 559.388 964.826 553.536 970.899 547.021C1010.32 504.255 1009.5 397.968 1008.94 324.911C1008.81 307.868 1008.69 292.633 1009.1 280.435C1012.05 256.88 1019.3 237.777 1036.67 227.03C1047.48 220.941 1059.68 217.758 1072.08 217.792C1091.03 216.945 1108.63 227.987 1123.61 247.862ZM796.592 611.006C799.636 612.41 802.722 613.834 805.818 615.296H805.855C777.164 623.008 751.697 616.738 739.236 613.67C738.318 613.444 737.47 613.235 736.696 613.05C698.05 604.438 654.656 564.724 652.043 520.557C649.834 472.341 695.547 442.381 729.335 440.32C760.326 438.885 788.482 459.68 789.771 487.027C790.544 504.142 779.944 519.968 767.209 529.39L766.215 530.127C753.958 539.07 746.855 551.511 747.517 565.792C746.228 587.769 769.808 598.648 796.592 611.006Z" fill="#F7C844"/>
<path d="M1404.96 233.213C1631.91 337.742 1692.05 693.287 1513.87 739.479C1467.35 751.515 1442.72 579.557 1419.9 569.251C1402.49 561.375 1264.25 556.259 1243.45 569.251C1231.38 576.613 1195.79 778.456 1174.11 788.505C1149.97 799.73 1128.47 798.405 1060.64 740.436C1051.29 732.523 1128.58 949.641 1377.91 949.641C1470.76 949.737 1560.04 913.822 1626.96 849.448C1693.88 785.073 1733.23 697.256 1736.73 604.466C1740.24 511.675 1707.62 421.141 1645.75 351.903C1583.87 282.665 1497.56 240.119 1404.96 233.213Z" fill="#395389"/>
<path d="M1098.88 6.96655C1102.56 16.168 1083.2 21.3209 1085.63 44.6927C1085.63 58.3477 1098.99 69.6839 1111.13 77.818L1112.13 78.4806C1124.72 86.9459 1135.57 101.632 1135.57 118.01C1135.57 144.29 1109.48 165.416 1079.81 165.416C1033.55 165.416 998.029 130.487 998.029 84.2223C998.029 -9.11768 1093.47 -6.61485 1098.88 6.92975" fill="#395389"/>
<path d="M1253.57 462.073C1271.97 484.414 1384.04 489.162 1405.83 468.919C1414.33 461.005 1408.56 445.142 1402.15 417.611C1392.84 376.756 1388.2 356.292 1368.33 343.337C1345.32 328.32 1309.44 327.915 1287.35 343.668C1270.42 355.63 1265.93 377.235 1256.99 420.445C1252.31 443.081 1248.3 455.668 1253.6 462.073" fill="#395389"/>
<path d="M268.5 1329.11C268.422 1340.96 263.682 1352.3 255.306 1360.67C246.929 1369.05 235.59 1373.79 223.744 1373.87H44.7561C32.9099 1373.79 21.5708 1369.05 13.1941 1360.67C4.81735 1352.3 0.0771765 1340.96 0 1329.11V1239.63H67.1341V1311.63H201.366V1060.61H268.5V1329.11Z" fill="#395389"/>
<path d="M563.822 1329.11C563.745 1340.96 559.005 1352.3 550.628 1360.67C542.252 1369.05 530.912 1373.79 519.066 1373.87H340.079C328.233 1373.79 316.893 1369.05 308.517 1360.67C300.14 1352.3 295.4 1340.96 295.323 1329.11V1105.51C295.41 1093.67 300.154 1082.34 308.53 1073.98C316.905 1065.61 328.239 1060.87 340.079 1060.8H519.066C530.906 1060.87 542.24 1065.61 550.615 1073.98C558.991 1082.34 563.735 1093.67 563.822 1105.51V1329.11ZM496.688 1311.63V1122.81H362.457V1311.63H496.688Z" fill="#395389"/>
<path d="M859.163 1329.11C859.105 1340.96 854.371 1352.31 845.99 1360.69C837.609 1369.07 826.259 1373.81 814.407 1373.87H590.664V1060.65H814.407C826.278 1060.71 837.645 1065.46 846.029 1073.86C854.413 1082.26 859.134 1093.64 859.163 1105.51V1154.76C859.086 1166.61 854.346 1177.95 845.969 1186.32C837.592 1194.7 826.253 1199.44 814.407 1199.52C826.253 1199.57 837.598 1204.3 845.978 1212.68C854.357 1221.05 859.096 1232.39 859.163 1244.24V1329.11ZM792.066 1168.08V1122.85H657.798V1168.08H792.066ZM792.066 1311.63V1230.21H657.798V1311.63H792.066Z" fill="#395389"/>
<path d="M1208.22 1373.87H1131.59L1103.44 1302.28H977.375L948.74 1373.87H872.588L997.912 1060.65H1082.93L1208.22 1373.87ZM1078.55 1240.08L1040.17 1144.12L1002.29 1240.08H1078.55Z" fill="#F7C844"/>
<path d="M1535.13 1373.87H1449.71L1378.12 1275.59L1306.53 1373.87H1221.51L1335.61 1217.07L1221.51 1060.65H1306.9L1378.56 1158.96L1449.71 1060.65H1534.95L1420.85 1217.07L1535.13 1373.87Z" fill="#F7C844"/>
<path d="M1807.87 1373.87H1606.47C1594.62 1373.8 1583.28 1369.06 1574.91 1360.68C1566.54 1352.3 1561.81 1340.96 1561.75 1329.11V1060.65H1628.85V1311.63H1807.87V1373.87Z" fill="#F7C844"/>
<path d="M2080.83 1373.87H1879.46C1867.62 1373.79 1856.28 1369.05 1847.9 1360.67C1839.52 1352.3 1834.78 1340.96 1834.71 1329.11V1105.51C1834.79 1093.67 1839.54 1082.34 1847.91 1073.98C1856.29 1065.61 1867.62 1060.87 1879.46 1060.8H2080.83V1123H1901.84V1168.08H2080.83V1230.29H1901.84V1311.63H2080.83V1373.87Z" fill="#F7C844"/>
</svg>
