<svg width="1617" height="1315" viewBox="0 0 1617 1315" fill="none" xmlns="http://www.w3.org/2000/svg">
<path d="M436.252 231.016C430.938 228.994 426.061 225.972 421.885 222.112C418.718 219.324 416.05 216.017 413.993 212.332C409.969 203.897 409.341 194.237 412.24 185.352C415.841 175.994 422.656 168.224 431.463 163.431C436.724 160.059 445.493 155.472 469.437 152.302C487.339 150.147 505.398 149.605 523.397 150.683C528.051 150.683 544.711 151.492 566.7 154.123C576.952 155.337 585.653 156.618 592.263 157.765C602.044 159.249 609.463 160.396 613.712 160.868C615.201 160.923 616.617 161.523 617.692 162.554C618.32 163.383 618.775 164.329 619.03 165.338C619.285 166.346 619.335 167.395 619.176 168.422V503.985C619.176 505.739 619.176 507.02 619.783 507.492C620.343 507.794 620.969 507.951 621.604 507.951C622.24 507.951 622.865 507.794 623.425 507.492C630.71 504.997 635.499 503.243 641.637 500.747L646.358 498.926L663.356 491.507C665.649 490.495 672.866 487.19 679.678 483.75C688.582 479.164 690.943 477.882 698.429 473.835C702.342 471.744 705.174 469.923 711.38 466.348C722.239 459.603 719.946 461.087 724.33 458.389C725.409 457.715 733.503 452.521 736.269 450.565C737.18 449.907 737.958 449.084 738.562 448.137C738.747 447.813 738.905 447.475 739.034 447.125C739.53 446.118 739.784 445.01 739.776 443.887V439.908C739.776 432.084 739.776 420.685 739.776 420.078V418.526C739.776 389.32 739.776 360.182 739.776 330.841V202.687C739.656 201.302 739.888 199.91 740.451 198.64C740.802 197.76 741.385 196.99 742.137 196.414C743.55 195.55 745.215 195.193 746.858 195.402C748.872 195.457 750.878 195.659 752.862 196.009L756.571 196.414L804.191 202.822C823.024 205.175 842.018 205.987 860.984 205.25C874.373 205.244 887.736 204.048 900.914 201.675C912.981 199.673 924.759 196.208 935.988 191.355C946.344 186.804 956.107 181.005 965.059 174.088C971.936 169.003 978.245 163.191 983.877 156.753C992.515 146.888 999.363 135.589 1004.11 123.366C1008.2 113.415 1010.48 102.818 1010.86 92.069C1011.22 79.8877 1009.06 67.7629 1004.52 56.4555C1001.25 46.7148 996.146 37.6926 989.476 29.8802C983.197 22.9709 975.922 17.0375 967.892 12.2759C963.583 9.45477 959.075 6.95235 954.402 4.78888L945.903 1.4839C944.206 0.807443 942.442 0.310105 940.642 0C946.403 6.1602 950.348 13.7935 952.041 22.056C953.287 28.1438 953.172 34.4318 951.704 40.4699C948.51 51.6476 941.305 61.2543 931.469 67.4498C923.902 72.0581 915.522 75.172 906.782 76.6229C893.042 79.8252 879.002 81.5663 864.896 81.8167C844.898 82.1305 824.908 80.7768 805.135 77.7696C792.32 76.016 781.123 73.9924 739.979 65.0891C714.82 59.6256 695.866 55.3762 666.795 48.8336C617.017 37.7044 606.9 35.3438 589.431 32.5109C569.599 28.736 549.508 26.4811 529.333 25.7659C516.299 25.3452 503.253 25.7958 490.279 27.1148C475.368 28.4732 460.633 31.3435 446.302 35.681C432.802 39.4065 419.869 44.9427 407.856 52.1388C397.007 58.712 387.15 66.7973 378.582 76.1509C369.73 85.0332 362.837 95.6713 358.347 107.38C353.367 121.878 352.48 137.468 355.784 152.437C358.282 163.705 362.857 174.41 369.274 184.003C375.955 194.776 384.497 204.277 394.5 212.062C402.456 218.117 411.279 222.937 420.671 226.362C425.726 228.343 430.938 229.9 436.252 231.016Z" fill="url(#paint0_radial_102_27)"/>
<path d="M898.148 295.498C904.489 289.832 909.75 285.852 913.19 283.289C917.844 279.715 922.295 276.544 931.266 270.609L940.035 264.741L943.677 262.38C945.363 261.301 946.308 260.761 947.589 260.087C948.503 259.512 949.475 259.037 950.49 258.67C951.371 258.277 952.301 258.005 953.255 257.861C954.232 257.641 955.246 257.641 956.223 257.861C956.99 258.191 957.697 258.647 958.314 259.21C959.293 260.146 960.073 261.27 960.607 262.515C961.605 264.691 962.417 266.947 963.035 269.26C963.979 273.442 964.452 275.465 964.856 278.298C965.261 281.131 966.34 285.515 968.431 293.946C970.522 302.378 971.129 303.524 973.827 313.709C976.525 323.894 976.323 324.164 979.358 335.765C980.909 341.633 982.326 346.625 985.159 356.607C988.396 368.074 990.015 373.807 992.308 381.226C994.197 387.364 995.816 392.221 999.053 401.934C1001.01 407.734 1004.18 417.177 1008.5 429.588C1012.07 439.908 1014.9 448.002 1018.88 458.659C1022.86 469.316 1026.17 477.41 1031.29 490.091C1037.1 504.592 1040 511.809 1043.97 520.982C1045.12 523.546 1046 525.636 1058.21 551.942C1067.99 573.256 1069 575.347 1070.35 578.18C1076.62 591.198 1081.61 600.978 1084.65 606.846C1088.56 614.401 1095.44 627.621 1104.88 643.944C1109.87 652.982 1115.54 663.167 1123.63 676.589C1131.73 690.012 1131.73 689.135 1139.75 702.625C1144.27 710.247 1149.2 717.666 1153.65 725.356C1154.26 726.367 1156.62 730.482 1160.39 735.473C1162.46 738.315 1164.72 741.018 1167.14 743.567C1169.11 745.504 1171.2 747.307 1173.41 748.963C1176.27 751.116 1179.35 752.969 1182.58 754.494C1185.38 755.775 1188.27 756.857 1191.22 757.731C1194.14 758.54 1197.12 759.149 1200.12 759.552C1203.83 760.127 1207.57 760.398 1211.32 760.362C1215.61 760.304 1219.89 759.761 1224.07 758.743C1227.88 757.707 1231.58 756.307 1235.13 754.561C1237.33 753.508 1239.45 752.291 1241.47 750.919C1246.55 747.55 1251.1 743.435 1254.96 738.711C1257.87 735.328 1260.3 731.56 1262.18 727.514C1263.34 724.946 1264.29 722.283 1265.01 719.555C1267.45 712.306 1268.52 704.667 1268.18 697.027C1267.54 689.914 1265.4 683.017 1261.91 676.792C1259.3 672.002 1256.23 667.483 1252.73 663.302C1249.9 659.524 1246.86 656.085 1244.64 653.589C1242.41 651.093 1239.51 647.923 1238.3 646.844C1237.08 645.765 1233.04 641.111 1222.72 628.16C1219.01 623.574 1219.07 623.574 1207.81 609.274L1192.3 589.646C1186.23 582.025 1185.55 580.945 1182.58 577.371C1179.62 573.796 1177.59 570.626 1171.32 561.79L1158.84 543.983C1148.12 528.604 1147.98 528.604 1143.26 521.725C1139.28 515.991 1131.86 505.267 1123.7 492.586C1115.54 479.906 1109.13 469.181 1101.78 456.77C1096.86 448.339 1090.99 437.952 1079.32 417.245C1068.8 398.561 1065.83 393.233 1062.93 387.769C1057.06 376.707 1052.54 367.534 1049.03 360.25C1044.58 351.279 1041.55 344.804 1036.76 334.754C1031.97 324.704 1028.6 317.486 1023.87 307.167C1019.15 296.847 1016.19 290.102 1012.21 280.591C1010.18 275.668 1004.79 262.717 1000.81 251.453C999.525 247.676 998.109 243.899 996.76 240.189C995.411 236.479 994.804 234.591 993.32 231.083C992.287 228.535 991.046 226.076 989.61 223.731C988.374 221.604 986.802 219.691 984.956 218.065C983.277 216.603 981.33 215.48 979.223 214.76C977.033 214.135 974.745 213.929 972.478 214.153C968.192 214.776 964.169 216.6 960.877 219.414C954.271 224.674 948.092 230.448 942.395 236.681C934.032 245.315 935.651 243.426 930.794 248.485C923.442 256.242 917.304 263.594 911.571 270.204C904.826 278.365 899.902 284.773 897.474 288.011C893.764 292.867 891.336 296.24 890.324 297.724L884.726 305.885C883.232 307.903 881.88 310.021 880.679 312.225L890.999 302.378C890.999 302.378 894.236 298.735 898.148 295.498Z" fill="url(#paint1_linear_102_27)"/>
<path d="M842.3 453.33C856.098 451.446 869.993 450.365 883.916 450.093C892.348 450.093 905.5 449.688 921.688 450.497C942.8 451.644 958.921 453.87 965.396 454.882C976.458 456.5 989.341 458.928 1003.64 462.368C989.746 461.804 975.833 461.961 961.956 462.841C952.648 463.38 945.094 464.19 939.495 464.729C933.897 465.269 920.879 466.685 905.77 469.113C879.861 473.278 854.344 479.595 829.485 487.999C813.155 493.3 797.219 499.746 781.797 507.29C761.9 517.138 747.128 525.569 747.128 525.569C747.128 525.569 759.674 515.789 776.874 501.22C789.622 490.562 799.402 480.985 805.81 474.712L825.707 455.961C830.092 455.219 835.69 454.207 842.3 453.33Z" fill="url(#paint2_linear_102_27)"/>
<path d="M682.781 763.127H676.711C674.755 763.127 672.799 763.127 670.842 763.127C668.886 763.127 667.065 762.588 665.177 762.251L659.713 760.834C656.206 759.675 652.8 758.231 649.528 756.517C647.91 755.641 646.358 754.696 644.807 753.684C643.255 752.673 641.839 751.526 640.423 750.379C638.994 749.233 637.642 747.994 636.376 746.67C635.092 745.385 633.876 744.034 632.733 742.623C631.52 741.249 630.415 739.783 629.428 738.238C628.405 736.736 627.46 735.183 626.595 733.584C625.719 731.966 624.909 730.279 624.167 728.593C623.427 726.881 622.796 725.124 622.279 723.332C621.739 721.578 621.267 719.757 620.862 717.869C620.461 715.998 620.168 714.107 619.985 712.203C619.883 710.271 619.883 708.334 619.985 706.402V605.227C627.337 601.99 635.027 598.482 642.918 594.368C653.913 588.77 664.097 583.036 673.338 577.371C681.365 572.514 695.866 563.476 710.503 553.291C720.553 546.546 731.615 538.115 733.099 536.968L739.844 531.774V706.402C739.844 708.358 739.844 710.314 739.844 712.203C739.844 714.091 739.304 716.047 738.967 717.869C738.63 719.69 738.09 721.578 737.55 723.332C737.011 725.086 736.336 726.907 735.662 728.593C734.987 730.279 734.11 731.966 733.234 733.584C732.369 735.183 731.424 736.736 730.401 738.238C729.322 739.79 728.242 741.274 727.096 742.623C724.74 745.428 722.144 748.023 719.339 750.379C717.99 751.526 716.506 752.605 714.955 753.684C713.453 754.707 711.899 755.653 710.301 756.517C708.684 757.399 707.017 758.188 705.309 758.878C703.599 759.641 701.841 760.294 700.048 760.834C698.295 761.374 696.473 761.846 694.585 762.251C692.764 762.251 690.875 762.925 688.919 763.127C686.963 763.33 684.737 763.127 682.781 763.127Z" fill="url(#paint3_linear_102_27)"/>
<path d="M614.657 419.875C614.657 419.875 610.677 426.62 603.393 438.424C593.815 453.87 589.228 462.706 580.662 478.894C577.492 484.964 567.172 504.457 570.814 513.968C571.644 516.602 573.213 518.943 575.333 520.713C577.813 522.219 580.661 523.013 583.562 523.006C594.148 522.228 604.571 519.957 614.522 516.261C623.29 513.631 650.675 501.557 650.675 501.557C672.664 491.574 691.145 482.064 704.635 474.577C718.125 467.09 728.849 459.805 734.717 456.231C751.85 445.753 767.88 435.321 782.809 424.934C798.593 414.209 811.745 404.699 821.66 397.279C839.939 383.789 855.79 371.851 875.215 354.449C880.611 349.592 887.424 343.117 901.116 330.234C909.008 322.747 916.967 315.126 926.477 305.548C933.445 298.592 940.041 291.275 946.24 283.626L950.624 278.028C950.624 278.028 939.428 293.407 926.005 310.269C924.251 312.428 913.122 326.457 902.735 338.396C883.929 359.696 863.644 379.644 842.03 398.089C834.161 404.879 826.719 411.062 819.704 416.638C802.167 430.667 788.61 440.178 775.997 449.014C756.706 462.504 739.304 474.644 716.169 487.865C704.432 494.61 690.066 502.231 686.423 504.188C677.318 508.976 671.247 512.214 663.153 516.194C649.663 522.939 638.534 529.009 631.924 531.707C609.058 541.015 597.524 544.05 585.316 544.59C574.996 545.062 560.967 545.669 554.964 537.17C547.814 526.918 555.706 508.437 558.269 502.434C560.36 497.577 563.799 491.372 565.756 487.865C569.061 481.996 571.826 477.545 573.917 474.375C576.008 471.204 578.976 466.753 585.383 457.242C590.914 449.081 593.68 444.967 594.557 443.753C596.243 441.459 599.818 437.007 606.833 428.441C607.507 427.632 608.856 425.946 610.745 423.787L614.657 419.875Z" fill="url(#paint4_linear_102_27)"/>
<path d="M648.921 522.196C666.121 514.17 674.755 510.19 684.13 505.334C712.126 490.494 739.324 474.194 765.609 456.5C793.914 437.725 820.952 417.109 846.549 394.784C864.412 379.526 881.265 363.123 897.002 345.68C909.952 331.246 922.161 315.867 927.826 308.718C949.073 281.738 958.449 269.732 958.449 269.732C947.465 295.47 934.428 320.281 919.463 343.927C894.44 382.158 865.357 417.573 832.722 449.553C802.697 480.35 770.362 508.806 735.999 534.675C709.267 555.022 681.088 573.394 651.687 589.646C628.49 601.913 604.385 612.376 579.583 620.943C562.463 626.688 544.611 629.959 526.567 630.656C506.872 631.465 499.587 627.553 496.147 625.125C482.657 615.075 484.006 597.201 484.546 590.051C485.621 579.744 488.071 569.626 491.831 559.968C497.499 545.403 504.808 531.532 513.617 518.622C522.285 505.989 531.962 494.079 542.553 483.008C545.588 479.771 556.043 468.776 570.072 455.691C577.492 448.946 582.82 444.562 591.387 437.48C602.179 428.576 614.927 419.943 614.927 419.943C604.742 432.016 597.052 442.336 591.724 449.89C587.812 455.354 584.507 460.278 582.551 463.38C576.817 471.947 573.108 477.477 569.061 484.29C564.473 491.693 560.632 499.533 557.594 507.695C554.357 516.193 550.849 528.942 556.38 536.429C558.134 538.857 562.585 543.173 579.178 543.511C599.683 543.646 616.478 537.17 648.921 522.196Z" fill="url(#paint5_linear_102_27)"/>
<path d="M259.533 936.271V914.957H382.629V936.271H332.514V1133.22H309.649V936.271H259.533Z" fill="url(#paint6_radial_102_27)"/>
<path d="M508.288 1075.42L525.758 1084.59C520.704 1094.84 513.85 1104.09 505.523 1111.91C498.144 1118.76 489.509 1124.12 480.094 1127.69C469.891 1131.48 459.072 1133.33 448.191 1133.16C421.84 1133.16 401.245 1124.52 386.407 1107.26C372.032 1091.15 364.107 1070.3 364.148 1048.71C363.928 1028.83 370.575 1009.49 382.967 993.941C390.437 984.032 400.186 976.069 411.387 970.727C422.588 965.385 434.911 962.82 447.314 963.251C460.009 962.825 472.621 965.444 484.097 970.889C495.573 976.334 505.579 984.446 513.28 994.548C525.299 1010.39 531.578 1029.84 531.086 1049.72H385.799C385.568 1066.86 392.029 1083.41 403.809 1095.86C409.311 1101.7 415.978 1106.32 423.38 1109.42C430.781 1112.52 438.751 1114.04 446.774 1113.87C454.95 1113.88 463.062 1112.42 470.719 1109.55C477.991 1107.04 484.721 1103.17 490.549 1098.15C497.568 1091.51 503.548 1083.84 508.288 1075.42ZM508.288 1031.91C506.157 1022.3 502.02 1013.24 496.147 1005.34C490.477 998.441 483.27 992.967 475.103 989.354C466.527 985.281 457.146 983.183 447.651 983.216C432.575 982.936 417.958 988.412 406.776 998.527C397.461 1007.65 390.914 1019.23 387.89 1031.91H508.288Z" fill="url(#paint7_radial_102_27)"/>
<path d="M705.444 1001.36L688.987 1011.61C682.33 1002.48 673.537 995.129 663.376 990.19C653.216 985.251 642 982.88 630.71 983.284C621.695 983.008 612.716 984.544 604.305 987.799C595.894 991.055 588.222 995.964 581.741 1002.24C575.461 1008.15 570.484 1015.3 567.128 1023.25C563.771 1031.19 562.109 1039.75 562.248 1048.37C562.217 1060.04 565.315 1071.5 571.219 1081.56C576.991 1091.76 585.524 1100.13 595.838 1105.71C611.209 1113.87 628.96 1116.37 645.988 1112.77C663.016 1109.17 678.236 1099.7 688.987 1086.01L705.444 1096.8C697.694 1108.43 686.952 1117.75 674.35 1123.78C660.48 1130.4 645.264 1133.7 629.9 1133.43C618.225 1133.78 606.595 1131.81 595.688 1127.63C584.78 1123.45 574.812 1117.14 566.363 1109.08C558.253 1101.52 551.817 1092.34 547.472 1082.14C543.127 1071.94 540.969 1060.94 541.136 1049.86C541.074 1034.53 545.153 1019.48 552.94 1006.28C560.646 993.03 571.877 982.173 585.384 974.92C599.551 967.296 615.432 963.419 631.519 963.656C642.031 963.622 652.482 965.261 662.479 968.512C671.545 971.362 680.088 975.668 687.772 981.26C694.905 986.756 700.906 993.582 705.444 1001.36Z" fill="url(#paint8_radial_102_27)"/>
<path d="M710.435 909.628H731.21V1000.89C738.599 990.729 748.074 982.266 758.999 976.066C769.051 970.586 780.332 967.754 791.78 967.838C803.178 967.633 814.378 970.826 823.954 977.011C833.139 983 840.326 991.596 844.593 1001.7C849.879 1017.34 852.167 1033.84 851.338 1050.33V1133.43H830.564V1056.4C831.005 1043.95 830.259 1031.48 828.338 1019.17C826.556 1009.75 821.605 1001.23 814.308 995.02C806.649 989.338 797.26 986.478 787.733 986.926C775.353 986.877 763.374 991.309 754.008 999.404C744.311 1007.33 737.408 1018.16 734.313 1030.3C731.822 1044.79 730.827 1059.51 731.345 1074.21V1133.43H710.57L710.435 909.628Z" fill="url(#paint9_radial_102_27)"/>
<path d="M992.173 915.024L1094.02 1133.29H1070.28L1035.95 1061.46H942.126L908.401 1133.29H884.051L987.182 915.024H992.173ZM989.408 961.362L952.041 1040.41H1026.64L989.408 961.362Z" fill="url(#paint10_radial_102_27)"/>
<path d="M1105.22 971.817H1130.18L1173.14 1030.9L1319.1 825.856H1346.82L1185.62 1048.1L1247.54 1133.29H1222.24L1173.14 1065.84L1124.24 1133.29H1099.49L1160.66 1048.24L1105.22 971.817Z" fill="url(#paint11_radial_102_27)"/>
<path d="M1265.88 971.817H1286.66V1133.29H1265.88V971.817Z" fill="url(#paint12_radial_102_27)"/>
<path d="M1407.53 987.735L1394.04 1001.23C1385.82 991.85 1374.23 986.103 1361.8 985.24C1355.4 985.141 1349.22 987.564 1344.6 991.985C1342.36 993.886 1340.56 996.252 1339.32 998.919C1338.09 1001.59 1337.45 1004.49 1337.45 1007.43C1337.57 1012.92 1339.65 1018.19 1343.32 1022.27C1350.48 1029.34 1358.87 1035.06 1368.07 1039.13C1380.01 1044.5 1390.68 1052.34 1399.37 1062.13C1404.71 1069.4 1407.55 1078.2 1407.46 1087.22C1407.57 1093.45 1406.4 1099.62 1404.01 1105.37C1401.61 1111.12 1398.06 1116.31 1393.57 1120.61C1389.01 1125.08 1383.6 1128.58 1377.65 1130.9C1371.7 1133.22 1365.35 1134.31 1358.97 1134.1C1349.81 1134.1 1340.77 1132.02 1332.53 1128.03C1324.38 1124.23 1317.26 1118.54 1311.75 1111.44L1324.63 1096.73C1328.61 1101.99 1333.69 1106.31 1339.52 1109.38C1345.35 1112.46 1351.78 1114.22 1358.36 1114.54C1366.16 1114.73 1373.74 1111.88 1379.47 1106.58C1382.19 1104.29 1384.38 1101.43 1385.88 1098.2C1387.39 1094.97 1388.17 1091.46 1388.17 1087.9C1388.19 1082.14 1386.16 1076.57 1382.44 1072.18C1374.81 1065.07 1366.03 1059.3 1356.47 1055.12C1345.11 1050.08 1335.03 1042.54 1326.99 1033.06C1321.79 1025.84 1319.05 1017.14 1319.17 1008.24C1319.02 1002.6 1320.06 996.994 1322.21 991.779C1324.36 986.563 1327.57 981.855 1331.65 977.955C1335.82 973.949 1340.75 970.817 1346.14 968.744C1351.54 966.67 1357.3 965.697 1363.08 965.882C1377.65 966.017 1392.47 973.301 1407.53 987.735Z" fill="url(#paint13_radial_102_27)"/>
<path d="M1276.2 934.045C1293.9 934.045 1308.24 919.701 1308.24 902.007C1308.24 884.312 1293.9 869.968 1276.2 869.968C1258.51 869.968 1244.17 884.312 1244.17 902.007C1244.17 919.701 1258.51 934.045 1276.2 934.045Z" fill="url(#paint14_linear_102_27)"/>
<path d="M1228.32 906.189C1230.62 906.189 1232.5 904.316 1232.5 902.007C1232.5 899.697 1230.62 897.825 1228.32 897.825C1226.01 897.825 1224.13 899.697 1224.13 902.007C1224.13 904.316 1226.01 906.189 1228.32 906.189Z" fill="url(#paint15_linear_102_27)"/>
<path d="M1265.01 851.622C1255.21 853.809 1246.25 858.8 1239.23 865.985C1232.22 873.17 1227.44 882.24 1225.48 892.092H1233.64C1235.48 884.398 1239.37 877.346 1244.89 871.681C1250.41 866.017 1257.36 861.952 1265.01 859.918V851.622Z" fill="url(#paint16_linear_102_27)"/>
<path d="M1318.9 911.45C1317.15 919.298 1313.28 926.516 1307.72 932.319C1302.15 938.122 1295.1 942.289 1287.33 944.365V952.527C1297.25 950.327 1306.29 945.259 1313.34 937.955C1320.4 930.651 1325.14 921.433 1326.99 911.45H1318.9Z" fill="url(#paint17_linear_102_27)"/>
<path d="M0 1313.11V1225.55H10.6032V1303.71H51.306V1313.11H0Z" fill="#1283B5"/>
<path d="M93.8899 1314.48C87.5622 1314.48 82.1038 1313.08 77.5147 1310.29C72.9542 1307.47 69.4341 1303.54 66.9543 1298.49C64.503 1293.42 63.2773 1287.52 63.2773 1280.79C63.2773 1274.06 64.503 1268.14 66.9543 1263C69.4341 1257.85 72.883 1253.83 77.301 1250.95C81.7475 1248.04 86.9351 1246.59 92.8638 1246.59C96.2842 1246.59 99.6618 1247.16 102.997 1248.3C106.332 1249.44 109.367 1251.29 112.104 1253.85C114.84 1256.39 117.02 1259.76 118.645 1263.95C120.27 1268.14 121.082 1273.29 121.082 1279.42V1283.7H70.4602V1274.98H110.821C110.821 1271.27 110.08 1267.96 108.598 1265.06C107.144 1262.15 105.063 1259.85 102.355 1258.17C99.6761 1256.49 96.5122 1255.65 92.8638 1255.65C88.8448 1255.65 85.3674 1256.65 82.4316 1258.64C79.5242 1260.61 77.2867 1263.18 75.719 1266.34C74.1514 1269.5 73.3675 1272.9 73.3675 1276.52V1282.33C73.3675 1287.29 74.2226 1291.49 75.9328 1294.94C77.6715 1298.36 80.08 1300.97 83.1584 1302.77C86.2368 1304.53 89.8139 1305.42 93.8899 1305.42C96.5407 1305.42 98.935 1305.05 101.073 1304.31C103.239 1303.54 105.106 1302.4 106.674 1300.89C108.241 1299.35 109.453 1297.44 110.308 1295.16L120.056 1297.89C119.03 1301.2 117.305 1304.11 114.883 1306.61C112.46 1309.09 109.467 1311.03 105.904 1312.43C102.341 1313.8 98.3364 1314.48 93.8899 1314.48Z" fill="#1283B5"/>
<path d="M155.756 1314.65C151.595 1314.65 147.818 1313.87 144.426 1312.3C141.034 1310.7 138.341 1308.41 136.346 1305.42C134.35 1302.4 133.353 1298.75 133.353 1294.47C133.353 1290.71 134.094 1287.66 135.576 1285.32C137.058 1282.96 139.039 1281.1 141.519 1279.76C143.999 1278.42 146.735 1277.43 149.728 1276.77C152.749 1276.09 155.785 1275.55 158.835 1275.15C162.825 1274.63 166.06 1274.25 168.54 1273.99C171.048 1273.71 172.873 1273.24 174.013 1272.58C175.181 1271.93 175.766 1270.79 175.766 1269.16V1268.82C175.766 1264.6 174.611 1261.32 172.302 1258.99C170.022 1256.65 166.559 1255.48 161.913 1255.48C157.096 1255.48 153.319 1256.53 150.583 1258.64C147.847 1260.75 145.923 1263 144.811 1265.4L135.234 1261.98C136.944 1257.99 139.224 1254.88 142.075 1252.66C144.954 1250.41 148.089 1248.84 151.481 1247.95C154.901 1247.04 158.265 1246.59 161.571 1246.59C163.68 1246.59 166.103 1246.84 168.839 1247.36C171.604 1247.84 174.269 1248.85 176.835 1250.39C179.428 1251.93 181.58 1254.25 183.291 1257.36C185.001 1260.47 185.856 1264.63 185.856 1269.85V1313.11H175.766V1304.22H175.253C174.568 1305.65 173.428 1307.17 171.832 1308.8C170.236 1310.42 168.113 1311.8 165.462 1312.94C162.811 1314.08 159.576 1314.65 155.756 1314.65ZM157.296 1305.59C161.286 1305.59 164.649 1304.8 167.386 1303.24C170.15 1301.67 172.231 1299.65 173.628 1297.17C175.053 1294.69 175.766 1292.08 175.766 1289.34V1280.11C175.338 1280.62 174.397 1281.09 172.944 1281.52C171.519 1281.92 169.865 1282.27 167.984 1282.59C166.132 1282.87 164.322 1283.13 162.554 1283.36C160.816 1283.56 159.405 1283.73 158.322 1283.87C155.699 1284.21 153.248 1284.77 150.968 1285.54C148.716 1286.28 146.892 1287.4 145.495 1288.91C144.127 1290.4 143.443 1292.42 143.443 1294.99C143.443 1298.49 144.74 1301.14 147.334 1302.94C149.956 1304.7 153.277 1305.59 157.296 1305.59Z" fill="#1283B5"/>
<path d="M204.273 1313.11V1247.44H214.021V1257.36H214.705C215.902 1254.11 218.068 1251.47 221.203 1249.45C224.339 1247.43 227.873 1246.42 231.807 1246.42C232.548 1246.42 233.474 1246.43 234.586 1246.46C235.697 1246.49 236.538 1246.53 237.108 1246.59V1256.85C236.766 1256.76 235.982 1256.63 234.757 1256.46C233.56 1256.26 232.291 1256.16 230.952 1256.16C227.759 1256.16 224.909 1256.83 222.401 1258.17C219.921 1259.48 217.954 1261.31 216.5 1263.65C215.075 1265.95 214.363 1268.59 214.363 1271.56V1313.11H204.273Z" fill="#1283B5"/>
<path d="M259.159 1273.61V1313.11H249.069V1247.44H258.817V1257.7H259.672C261.211 1254.37 263.549 1251.69 266.684 1249.66C269.819 1247.61 273.867 1246.59 278.826 1246.59C283.273 1246.59 287.164 1247.5 290.499 1249.32C293.833 1251.12 296.427 1253.85 298.28 1257.53C300.133 1261.18 301.059 1265.8 301.059 1271.38V1313.11H290.969V1272.07C290.969 1266.91 289.629 1262.89 286.95 1260.01C284.271 1257.1 280.594 1255.65 275.919 1255.65C272.698 1255.65 269.819 1256.35 267.283 1257.75C264.774 1259.14 262.793 1261.18 261.34 1263.86C259.886 1266.54 259.159 1269.79 259.159 1273.61Z" fill="#1283B5"/>
<path d="M354.727 1313.11V1225.55H407.23V1234.96H365.33V1264.54H403.297V1273.95H365.33V1313.11H354.727Z" fill="#1283B5"/>
<path d="M424.022 1313.11V1247.44H434.113V1313.11H424.022ZM429.153 1236.5C427.186 1236.5 425.49 1235.83 424.065 1234.49C422.668 1233.15 421.97 1231.54 421.97 1229.66C421.97 1227.77 422.668 1226.16 424.065 1224.82C425.49 1223.48 427.186 1222.81 429.153 1222.81C431.12 1222.81 432.801 1223.48 434.198 1224.82C435.623 1226.16 436.336 1227.77 436.336 1229.66C436.336 1231.54 435.623 1233.15 434.198 1234.49C432.801 1235.83 431.12 1236.5 429.153 1236.5Z" fill="#1283B5"/>
<path d="M452.593 1313.11V1247.44H462.341V1257.36H463.025C464.223 1254.11 466.389 1251.47 469.524 1249.45C472.66 1247.43 476.194 1246.42 480.128 1246.42C480.869 1246.42 481.795 1246.43 482.907 1246.46C484.018 1246.49 484.859 1246.53 485.429 1246.59V1256.85C485.087 1256.76 484.303 1256.63 483.078 1256.46C481.88 1256.26 480.612 1256.16 479.272 1256.16C476.08 1256.16 473.23 1256.83 470.721 1258.17C468.242 1259.48 466.275 1261.31 464.821 1263.65C463.396 1265.95 462.683 1268.59 462.683 1271.56V1313.11H452.593Z" fill="#1283B5"/>
<path d="M543.907 1262.15L534.843 1264.71C534.273 1263.2 533.432 1261.74 532.321 1260.31C531.237 1258.86 529.755 1257.66 527.874 1256.72C525.993 1255.78 523.584 1255.31 520.648 1255.31C516.63 1255.31 513.28 1256.23 510.601 1258.09C507.95 1259.91 506.625 1262.23 506.625 1265.06C506.625 1267.57 507.537 1269.55 509.361 1271C511.185 1272.45 514.036 1273.66 517.912 1274.63L527.66 1277.03C533.532 1278.45 537.907 1280.63 540.786 1283.57C543.665 1286.48 545.104 1290.23 545.104 1294.81C545.104 1298.58 544.021 1301.94 541.855 1304.9C539.717 1307.87 536.724 1310.21 532.876 1311.92C529.028 1313.63 524.553 1314.48 519.451 1314.48C512.753 1314.48 507.209 1313.03 502.82 1310.12C498.43 1307.21 495.651 1302.97 494.482 1297.38L504.06 1294.99C504.972 1298.52 506.696 1301.17 509.233 1302.94C511.798 1304.7 515.147 1305.59 519.28 1305.59C523.983 1305.59 527.717 1304.59 530.482 1302.6C533.276 1300.57 534.672 1298.15 534.672 1295.33C534.672 1293.05 533.874 1291.14 532.278 1289.6C530.682 1288.03 528.23 1286.86 524.924 1286.09L513.979 1283.53C507.965 1282.1 503.547 1279.89 500.725 1276.9C497.931 1273.88 496.535 1270.1 496.535 1265.57C496.535 1261.86 497.575 1258.59 499.656 1255.74C501.765 1252.89 504.63 1250.65 508.25 1249.02C511.898 1247.4 516.031 1246.59 520.648 1246.59C527.147 1246.59 532.249 1248.01 535.955 1250.86C539.689 1253.71 542.34 1257.47 543.907 1262.15Z" fill="#1283B5"/>
<path d="M588.853 1247.44V1255.99H554.82V1247.44H588.853ZM564.74 1231.71H574.83V1294.3C574.83 1297.15 575.243 1299.29 576.07 1300.71C576.925 1302.11 578.008 1303.05 579.319 1303.54C580.659 1303.99 582.07 1304.22 583.552 1304.22C584.663 1304.22 585.576 1304.16 586.288 1304.05C587.001 1303.91 587.571 1303.79 587.998 1303.71L590.05 1312.77C589.366 1313.03 588.412 1313.28 587.186 1313.54C585.96 1313.83 584.407 1313.97 582.526 1313.97C579.675 1313.97 576.882 1313.36 574.146 1312.13C571.438 1310.9 569.186 1309.04 567.39 1306.53C565.623 1304.02 564.74 1300.86 564.74 1297.04V1231.71Z" fill="#1283B5"/>
<path d="M634.473 1234.96V1225.55H700.145V1234.96H672.61V1313.11H662.007V1234.96H634.473Z" fill="#1283B5"/>
<path d="M732.296 1314.48C726.368 1314.48 721.166 1313.07 716.691 1310.25C712.244 1307.43 708.767 1303.48 706.258 1298.41C703.779 1293.33 702.539 1287.4 702.539 1280.62C702.539 1273.78 703.779 1267.81 706.258 1262.71C708.767 1257.6 712.244 1253.64 716.691 1250.82C721.166 1248 726.368 1246.59 732.296 1246.59C738.225 1246.59 743.413 1248 747.859 1250.82C752.334 1253.64 755.811 1257.6 758.291 1262.71C760.8 1267.81 762.054 1273.78 762.054 1280.62C762.054 1287.4 760.8 1293.33 758.291 1298.41C755.811 1303.48 752.334 1307.43 747.859 1310.25C743.413 1313.07 738.225 1314.48 732.296 1314.48ZM732.296 1305.42C736.8 1305.42 740.505 1304.26 743.413 1301.95C746.32 1299.65 748.472 1296.61 749.869 1292.85C751.265 1289.08 751.964 1285.01 751.964 1280.62C751.964 1276.23 751.265 1272.14 749.869 1268.35C748.472 1264.56 746.32 1261.49 743.413 1259.16C740.505 1256.82 736.8 1255.65 732.296 1255.65C727.793 1255.65 724.087 1256.82 721.18 1259.16C718.273 1261.49 716.121 1264.56 714.724 1268.35C713.327 1272.14 712.629 1276.23 712.629 1280.62C712.629 1285.01 713.327 1289.08 714.724 1292.85C716.121 1296.61 718.273 1299.65 721.18 1301.95C724.087 1304.26 727.793 1305.42 732.296 1305.42Z" fill="#1283B5"/>
<path d="M812.686 1313.11V1225.55H823.289V1303.71H863.992V1313.11H812.686Z" fill="#1283B5"/>
<path d="M906.576 1314.48C900.248 1314.48 894.79 1313.08 890.201 1310.29C885.641 1307.47 882.12 1303.54 879.641 1298.49C877.189 1293.42 875.964 1287.52 875.964 1280.79C875.964 1274.06 877.189 1268.14 879.641 1263C882.12 1257.85 885.569 1253.83 889.987 1250.95C894.434 1248.04 899.621 1246.59 905.55 1246.59C908.97 1246.59 912.348 1247.16 915.683 1248.3C919.018 1249.44 922.053 1251.29 924.79 1253.85C927.526 1256.39 929.707 1259.76 931.331 1263.95C932.956 1268.14 933.768 1273.29 933.768 1279.42V1283.7H883.146V1274.98H923.507C923.507 1271.27 922.766 1267.96 921.284 1265.06C919.83 1262.15 917.75 1259.85 915.042 1258.17C912.362 1256.49 909.198 1255.65 905.55 1255.65C901.531 1255.65 898.054 1256.65 895.118 1258.64C892.211 1260.61 889.973 1263.18 888.405 1266.34C886.838 1269.5 886.054 1272.9 886.054 1276.52V1282.33C886.054 1287.29 886.909 1291.49 888.619 1294.94C890.358 1298.36 892.766 1300.97 895.845 1302.77C898.923 1304.53 902.5 1305.42 906.576 1305.42C909.227 1305.42 911.621 1305.05 913.759 1304.31C915.925 1303.54 917.792 1302.4 919.36 1300.89C920.928 1299.35 922.139 1297.44 922.994 1295.16L932.742 1297.89C931.716 1301.2 929.992 1304.11 927.569 1306.61C925.146 1309.09 922.153 1311.03 918.59 1312.43C915.027 1313.8 911.023 1314.48 906.576 1314.48Z" fill="#1283B5"/>
<path d="M968.443 1314.65C964.281 1314.65 960.504 1313.87 957.113 1312.3C953.721 1310.7 951.027 1308.41 949.032 1305.42C947.037 1302.4 946.039 1298.75 946.039 1294.47C946.039 1290.71 946.78 1287.66 948.262 1285.32C949.744 1282.96 951.725 1281.1 954.205 1279.76C956.685 1278.42 959.421 1277.43 962.414 1276.77C965.435 1276.09 968.471 1275.55 971.521 1275.15C975.511 1274.63 978.747 1274.25 981.226 1273.99C983.735 1273.71 985.559 1273.24 986.699 1272.58C987.868 1271.93 988.452 1270.79 988.452 1269.16V1268.82C988.452 1264.6 987.297 1261.32 984.989 1258.99C982.708 1256.65 979.245 1255.48 974.599 1255.48C969.782 1255.48 966.006 1256.53 963.269 1258.64C960.533 1260.75 958.609 1263 957.497 1265.4L947.92 1261.98C949.63 1257.99 951.911 1254.88 954.761 1252.66C957.64 1250.41 960.775 1248.84 964.167 1247.95C967.587 1247.04 970.951 1246.59 974.257 1246.59C976.367 1246.59 978.789 1246.84 981.526 1247.36C984.29 1247.84 986.956 1248.85 989.521 1250.39C992.115 1251.93 994.267 1254.25 995.977 1257.36C997.687 1260.47 998.542 1264.63 998.542 1269.85V1313.11H988.452V1304.22H987.939C987.255 1305.65 986.115 1307.17 984.518 1308.8C982.922 1310.42 980.799 1311.8 978.148 1312.94C975.497 1314.08 972.262 1314.65 968.443 1314.65ZM969.982 1305.59C973.972 1305.59 977.336 1304.8 980.072 1303.24C982.837 1301.67 984.917 1299.65 986.314 1297.17C987.739 1294.69 988.452 1292.08 988.452 1289.34V1280.11C988.024 1280.62 987.084 1281.09 985.63 1281.52C984.205 1281.92 982.552 1282.27 980.67 1282.59C978.818 1282.87 977.008 1283.13 975.241 1283.36C973.502 1283.56 972.091 1283.73 971.008 1283.87C968.386 1284.21 965.934 1284.77 963.654 1285.54C961.402 1286.28 959.578 1287.4 958.181 1288.91C956.813 1290.4 956.129 1292.42 956.129 1294.99C956.129 1298.49 957.426 1301.14 960.02 1302.94C962.642 1304.7 965.963 1305.59 969.982 1305.59Z" fill="#1283B5"/>
<path d="M1041.76 1314.48C1036.28 1314.48 1031.45 1313.1 1027.26 1310.33C1023.07 1307.54 1019.79 1303.61 1017.43 1298.53C1015.06 1293.43 1013.88 1287.4 1013.88 1280.45C1013.88 1273.55 1015.06 1267.57 1017.43 1262.49C1019.79 1257.42 1023.09 1253.5 1027.31 1250.73C1031.52 1247.97 1036.4 1246.59 1041.93 1246.59C1046.2 1246.59 1049.58 1247.3 1052.06 1248.72C1054.57 1250.12 1056.48 1251.72 1057.79 1253.51C1059.13 1255.28 1060.17 1256.73 1060.91 1257.87H1061.77V1225.55H1071.86V1313.11H1062.11V1303.02H1060.91C1060.17 1304.22 1059.12 1305.73 1057.75 1307.56C1056.38 1309.35 1054.43 1310.96 1051.89 1312.39C1049.35 1313.78 1045.98 1314.48 1041.76 1314.48ZM1043.12 1305.42C1047.17 1305.42 1050.59 1304.36 1053.39 1302.25C1056.18 1300.12 1058.3 1297.17 1059.76 1293.4C1061.21 1289.61 1061.94 1285.24 1061.94 1280.28C1061.94 1275.37 1061.22 1271.09 1059.8 1267.41C1058.37 1263.7 1056.26 1260.82 1053.47 1258.77C1050.68 1256.69 1047.23 1255.65 1043.12 1255.65C1038.85 1255.65 1035.29 1256.75 1032.44 1258.94C1029.61 1261.11 1027.49 1264.06 1026.07 1267.79C1024.67 1271.5 1023.97 1275.66 1023.97 1280.28C1023.97 1284.95 1024.68 1289.2 1026.11 1293.02C1027.56 1296.81 1029.7 1299.83 1032.52 1302.08C1035.37 1304.31 1038.91 1305.42 1043.12 1305.42Z" fill="#1283B5"/>
<path d="M1122.18 1234.96V1225.55H1187.85V1234.96H1160.32V1313.11H1149.71V1234.96H1122.18Z" fill="#1283B5"/>
<path d="M1212.94 1273.61V1313.11H1202.85V1225.55H1212.94V1257.7H1213.79C1215.33 1254.31 1217.64 1251.62 1220.72 1249.62C1223.82 1247.6 1227.96 1246.59 1233.12 1246.59C1237.59 1246.59 1241.51 1247.48 1244.87 1249.28C1248.24 1251.05 1250.85 1253.77 1252.7 1257.45C1254.58 1261.09 1255.52 1265.74 1255.52 1271.38V1313.11H1245.43V1272.07C1245.43 1266.85 1244.08 1262.82 1241.37 1259.97C1238.69 1257.09 1234.97 1255.65 1230.21 1255.65C1226.9 1255.65 1223.94 1256.35 1221.32 1257.75C1218.72 1259.14 1216.67 1261.18 1215.16 1263.86C1213.68 1266.54 1212.94 1269.79 1212.94 1273.61Z" fill="#1283B5"/>
<path d="M1301.51 1314.48C1295.19 1314.48 1289.73 1313.08 1285.14 1310.29C1280.58 1307.47 1277.06 1303.54 1274.58 1298.49C1272.13 1293.42 1270.9 1287.52 1270.9 1280.79C1270.9 1274.06 1272.13 1268.14 1274.58 1263C1277.06 1257.85 1280.51 1253.83 1284.93 1250.95C1289.37 1248.04 1294.56 1246.59 1300.49 1246.59C1303.91 1246.59 1307.29 1247.16 1310.62 1248.3C1313.96 1249.44 1316.99 1251.29 1319.73 1253.85C1322.46 1256.39 1324.64 1259.76 1326.27 1263.95C1327.89 1268.14 1328.71 1273.29 1328.71 1279.42V1283.7H1278.08V1274.98H1318.45C1318.45 1271.27 1317.7 1267.96 1316.22 1265.06C1314.77 1262.15 1312.69 1259.85 1309.98 1258.17C1307.3 1256.49 1304.14 1255.65 1300.49 1255.65C1296.47 1255.65 1292.99 1256.65 1290.06 1258.64C1287.15 1260.61 1284.91 1263.18 1283.34 1266.34C1281.78 1269.5 1280.99 1272.9 1280.99 1276.52V1282.33C1280.99 1287.29 1281.85 1291.49 1283.56 1294.94C1285.3 1298.36 1287.7 1300.97 1290.78 1302.77C1293.86 1304.53 1297.44 1305.42 1301.51 1305.42C1304.17 1305.42 1306.56 1305.05 1308.7 1304.31C1310.86 1303.54 1312.73 1302.4 1314.3 1300.89C1315.87 1299.35 1317.08 1297.44 1317.93 1295.16L1327.68 1297.89C1326.65 1301.2 1324.93 1304.11 1322.51 1306.61C1320.08 1309.09 1317.09 1311.03 1313.53 1312.43C1309.97 1313.8 1305.96 1314.48 1301.51 1314.48Z" fill="#1283B5"/>
<path d="M1379.29 1313.11V1225.55H1408.87C1415.71 1225.55 1421.33 1226.72 1425.72 1229.06C1430.11 1231.37 1433.36 1234.54 1435.47 1238.59C1437.57 1242.64 1438.63 1247.24 1438.63 1252.4C1438.63 1257.56 1437.57 1262.14 1435.47 1266.13C1433.36 1270.12 1430.12 1273.25 1425.76 1275.53C1421.4 1277.78 1415.83 1278.91 1409.04 1278.91H1385.1V1269.33H1408.7C1413.38 1269.33 1417.14 1268.65 1419.99 1267.28C1422.87 1265.91 1424.95 1263.97 1426.23 1261.47C1427.54 1258.93 1428.2 1255.91 1428.2 1252.4C1428.2 1248.9 1427.54 1245.83 1426.23 1243.21C1424.92 1240.59 1422.82 1238.56 1419.95 1237.14C1417.07 1235.68 1413.26 1234.96 1408.53 1234.96H1389.89V1313.11H1379.29ZM1420.5 1273.78L1442.05 1313.11H1429.74L1408.53 1273.78H1420.5Z" fill="#1283B5"/>
<path d="M1481.76 1314.48C1475.43 1314.48 1469.97 1313.08 1465.38 1310.29C1460.82 1307.47 1457.3 1303.54 1454.82 1298.49C1452.37 1293.42 1451.15 1287.52 1451.15 1280.79C1451.15 1274.06 1452.37 1268.14 1454.82 1263C1457.3 1257.85 1460.75 1253.83 1465.17 1250.95C1469.62 1248.04 1474.8 1246.59 1480.73 1246.59C1484.15 1246.59 1487.53 1247.16 1490.87 1248.3C1494.2 1249.44 1497.24 1251.29 1499.97 1253.85C1502.71 1256.39 1504.89 1259.76 1506.51 1263.95C1508.14 1268.14 1508.95 1273.29 1508.95 1279.42V1283.7H1458.33V1274.98H1498.69C1498.69 1271.27 1497.95 1267.96 1496.47 1265.06C1495.01 1262.15 1492.93 1259.85 1490.22 1258.17C1487.54 1256.49 1484.38 1255.65 1480.73 1255.65C1476.71 1255.65 1473.24 1256.65 1470.3 1258.64C1467.39 1260.61 1465.16 1263.18 1463.59 1266.34C1462.02 1269.5 1461.24 1272.9 1461.24 1276.52V1282.33C1461.24 1287.29 1462.09 1291.49 1463.8 1294.94C1465.54 1298.36 1467.95 1300.97 1471.03 1302.77C1474.11 1304.53 1477.68 1305.42 1481.76 1305.42C1484.41 1305.42 1486.8 1305.05 1488.94 1304.31C1491.11 1303.54 1492.97 1302.4 1494.54 1300.89C1496.11 1299.35 1497.32 1297.44 1498.18 1295.16L1507.92 1297.89C1506.9 1301.2 1505.17 1304.11 1502.75 1306.61C1500.33 1309.09 1497.34 1311.03 1493.77 1312.43C1490.21 1313.8 1486.21 1314.48 1481.76 1314.48Z" fill="#1283B5"/>
<path d="M1570.82 1262.15L1561.75 1264.71C1561.18 1263.2 1560.34 1261.74 1559.23 1260.31C1558.15 1258.86 1556.67 1257.66 1554.78 1256.72C1552.9 1255.78 1550.49 1255.31 1547.56 1255.31C1543.54 1255.31 1540.19 1256.23 1537.51 1258.09C1534.86 1259.91 1533.53 1262.23 1533.53 1265.06C1533.53 1267.57 1534.45 1269.55 1536.27 1271C1538.1 1272.45 1540.95 1273.66 1544.82 1274.63L1554.57 1277.03C1560.44 1278.45 1564.82 1280.63 1567.7 1283.57C1570.57 1286.48 1572.01 1290.23 1572.01 1294.81C1572.01 1298.58 1570.93 1301.94 1568.77 1304.9C1566.63 1307.87 1563.63 1310.21 1559.79 1311.92C1555.94 1313.63 1551.46 1314.48 1546.36 1314.48C1539.66 1314.48 1534.12 1313.03 1529.73 1310.12C1525.34 1307.21 1522.56 1302.97 1521.39 1297.38L1530.97 1294.99C1531.88 1298.52 1533.61 1301.17 1536.14 1302.94C1538.71 1304.7 1542.06 1305.59 1546.19 1305.59C1550.89 1305.59 1554.63 1304.59 1557.39 1302.6C1560.19 1300.57 1561.58 1298.15 1561.58 1295.33C1561.58 1293.05 1560.78 1291.14 1559.19 1289.6C1557.59 1288.03 1555.14 1286.86 1551.83 1286.09L1540.89 1283.53C1534.87 1282.1 1530.46 1279.89 1527.63 1276.9C1524.84 1273.88 1523.44 1270.1 1523.44 1265.57C1523.44 1261.86 1524.49 1258.59 1526.57 1255.74C1528.68 1252.89 1531.54 1250.65 1535.16 1249.02C1538.81 1247.4 1542.94 1246.59 1547.56 1246.59C1554.06 1246.59 1559.16 1248.01 1562.86 1250.86C1566.6 1253.71 1569.25 1257.47 1570.82 1262.15Z" fill="#1283B5"/>
<path d="M1615.76 1247.44V1255.99H1581.73V1247.44H1615.76ZM1591.65 1231.71H1601.74V1294.3C1601.74 1297.15 1602.15 1299.29 1602.98 1300.71C1603.83 1302.11 1604.92 1303.05 1606.23 1303.54C1607.57 1303.99 1608.98 1304.22 1610.46 1304.22C1611.57 1304.22 1612.49 1304.16 1613.2 1304.05C1613.91 1303.91 1614.48 1303.79 1614.91 1303.71L1616.96 1312.77C1616.28 1313.03 1615.32 1313.28 1614.1 1313.54C1612.87 1313.83 1611.32 1313.97 1609.44 1313.97C1606.59 1313.97 1603.79 1313.36 1601.06 1312.13C1598.35 1310.9 1596.1 1309.04 1594.3 1306.53C1592.53 1304.02 1591.65 1300.86 1591.65 1297.04V1231.71Z" fill="#1283B5"/>
<defs>
<radialGradient id="paint0_radial_102_27" cx="0" cy="0" r="1" gradientUnits="userSpaceOnUse" gradientTransform="translate(808.52 631.684) scale(922.21 940.814)">
<stop offset="0.08" stop-color="#50A7B2"/>
<stop offset="0.51" stop-color="#147DA9"/>
<stop offset="1" stop-color="#184F80"/>
</radialGradient>
<linearGradient id="paint1_linear_102_27" x1="-1.68846" y1="657.266" x2="1616.42" y2="657.266" gradientUnits="userSpaceOnUse">
<stop stop-color="#02A6CE"/>
<stop offset="0.53" stop-color="#0E5F8F"/>
<stop offset="1" stop-color="#005691"/>
</linearGradient>
<linearGradient id="paint2_linear_102_27" x1="2.1259" y1="656.446" x2="1616.96" y2="656.446" gradientUnits="userSpaceOnUse">
<stop stop-color="#0E9BB9"/>
<stop offset="1" stop-color="#193E74"/>
</linearGradient>
<linearGradient id="paint3_linear_102_27" x1="806.725" y1="1314.14" x2="806.725" y2="-1.53249" gradientUnits="userSpaceOnUse">
<stop stop-color="#14538F"/>
<stop offset="1" stop-color="#1374A1"/>
</linearGradient>
<linearGradient id="paint4_linear_102_27" x1="1.18923" y1="658.408" x2="1618.06" y2="658.408" gradientUnits="userSpaceOnUse">
<stop stop-color="white"/>
<stop offset="0.14" stop-color="#2C87B7"/>
<stop offset="0.79" stop-color="#FBFDFF"/>
<stop offset="1" stop-color="white"/>
</linearGradient>
<linearGradient id="paint5_linear_102_27" x1="-333.108" y1="498.342" x2="1832.86" y2="751.004" gradientUnits="userSpaceOnUse">
<stop offset="0.23" stop-color="#ABDAE4"/>
<stop offset="0.39" stop-color="#2E8FCD"/>
<stop offset="0.62" stop-color="#1874B0"/>
<stop offset="0.85" stop-color="#065F99"/>
<stop offset="1" stop-color="#005790"/>
</linearGradient>
<radialGradient id="paint6_radial_102_27" cx="0" cy="0" r="1" gradientUnits="userSpaceOnUse" gradientTransform="translate(6726.56 -800.329) scale(12882.5 5907)">
<stop offset="0.01" stop-color="#75BCD2"/>
<stop offset="0.47" stop-color="#0081AD"/>
<stop offset="1" stop-color="#076191"/>
</radialGradient>
<radialGradient id="paint7_radial_102_27" cx="0" cy="0" r="1" gradientUnits="userSpaceOnUse" gradientTransform="translate(3945.98 -1400.97) scale(9497.4 7585.77)">
<stop offset="0.01" stop-color="#75BCD2"/>
<stop offset="0.47" stop-color="#0081AD"/>
<stop offset="1" stop-color="#076191"/>
</radialGradient>
<radialGradient id="paint8_radial_102_27" cx="0" cy="0" r="1" gradientUnits="userSpaceOnUse" gradientTransform="translate(2268.09 -1405.56) scale(9650.78 7592.12)">
<stop offset="0.01" stop-color="#75BCD2"/>
<stop offset="0.47" stop-color="#0081AD"/>
<stop offset="1" stop-color="#076191"/>
</radialGradient>
<radialGradient id="paint9_radial_102_27" cx="0" cy="0" r="1" gradientUnits="userSpaceOnUse" gradientTransform="translate(701.227 -749.249) scale(11241.3 5761.01)">
<stop offset="0.01" stop-color="#75BCD2"/>
<stop offset="0.47" stop-color="#0081AD"/>
<stop offset="1" stop-color="#076191"/>
</radialGradient>
<radialGradient id="paint10_radial_102_27" cx="0" cy="0" r="1" gradientUnits="userSpaceOnUse" gradientTransform="translate(-865.877 -800.735) scale(7552.39 5907)">
<stop offset="0.01" stop-color="#75BCD2"/>
<stop offset="0.47" stop-color="#0081AD"/>
<stop offset="1" stop-color="#076191"/>
</radialGradient>
<radialGradient id="paint11_radial_102_27" cx="0" cy="0" r="1" gradientUnits="userSpaceOnUse" gradientTransform="translate(-2143.45 -187.19) scale(6411.4 4193.74)">
<stop offset="0.01" stop-color="#75BCD2"/>
<stop offset="0.47" stop-color="#0081AD"/>
<stop offset="1" stop-color="#076191"/>
</radialGradient>
<radialGradient id="paint12_radial_102_27" cx="0" cy="0" r="1" gradientUnits="userSpaceOnUse" gradientTransform="translate(-38471.1 -1544.74) scale(76333.1 7984.56)">
<stop offset="0.01" stop-color="#75BCD2"/>
<stop offset="0.47" stop-color="#0081AD"/>
<stop offset="1" stop-color="#076191"/>
</radialGradient>
<radialGradient id="paint13_radial_102_27" cx="0" cy="0" r="1" gradientUnits="userSpaceOnUse" gradientTransform="translate(-9118.75 -1435.85) scale(16556.8 7662.27)">
<stop offset="0.01" stop-color="#75BCD2"/>
<stop offset="0.47" stop-color="#0081AD"/>
<stop offset="1" stop-color="#076191"/>
</radialGradient>
<linearGradient id="paint14_linear_102_27" x1="337.009" y1="179.9" x2="1109.04" y2="1362.47" gradientUnits="userSpaceOnUse">
<stop offset="0.06" stop-color="#1F8EB2"/>
<stop offset="1" stop-color="#045672"/>
</linearGradient>
<linearGradient id="paint15_linear_102_27" x1="94.2728" y1="943.805" x2="1412.45" y2="125.897" gradientUnits="userSpaceOnUse">
<stop stop-color="#05B6E0"/>
<stop offset="0.47" stop-color="#04B8E2"/>
</linearGradient>
<linearGradient id="paint16_linear_102_27" x1="0" y1="655.135" x2="1616.96" y2="655.135" gradientUnits="userSpaceOnUse">
<stop stop-color="#05B6E0"/>
<stop offset="0.47" stop-color="#04B8E2"/>
</linearGradient>
<linearGradient id="paint17_linear_102_27" x1="0" y1="656.247" x2="1616.96" y2="656.247" gradientUnits="userSpaceOnUse">
<stop stop-color="#05B6E0"/>
<stop offset="0.47" stop-color="#04B8E2"/>
</linearGradient>
</defs>
</svg>
