<svg xmlns="http://www.w3.org/2000/svg" viewBox="0 0 266.05 56.08"><defs><style>.cls-1{fill:#ee3c96;}.cls-1,.cls-2{fill-rule:evenodd;}.cls-2{fill:#fff;}</style></defs><g id="Layer_2" data-name="Layer 2"><g id="Layer_1-2" data-name="Layer 1"><path class="cls-1" d="M23.48,46.82,47,56.08,23.48,0,0,56.08Zm-15,.89,15-5.91,15,5.91-15-35.8Z"/><path class="cls-2" d="M63.9,45.65h4.71V13H63.9Z"/><path class="cls-2" d="M105.4,17.64H91.68v28H87v-28H73.27V13H105.4Z"/><path class="cls-2" d="M139.53,17.64H114.77V41.05h24.76ZM114.77,13a4.65,4.65,0,0,0-4.7,4.6V41.05a4.65,4.65,0,0,0,4.7,4.6h24.76a4.65,4.65,0,0,0,4.7-4.6V17.64a4.65,4.65,0,0,0-4.7-4.6Z"/><path class="cls-2" d="M149.47,13H155l23.43,26.08V13h4.7V45.65H177.6L154.17,19.32V45.65h-4.7Z"/><path class="cls-2" d="M188.33,45.65H193V13h-4.7Z"/><path class="cls-2" d="M198.27,17.64A4.65,4.65,0,0,1,203,13h25.68v4.6H203V41.05h25.68v4.6H203a4.65,4.65,0,0,1-4.7-4.6Z"/><path class="cls-2" d="M232.84,17.64a4.65,4.65,0,0,1,4.7-4.6H265v4.6H237.54v9h23.81a4.65,4.65,0,0,1,4.7,4.6v9.86a4.65,4.65,0,0,1-4.7,4.6H233.89v-4.6h27.46V31.19H237.54a4.65,4.65,0,0,1-4.7-4.6Z"/></g></g></svg>